{
    "asset": {
        "version": "2.0",
        "generator": "Open Asset Import Library (assimp v5.2.cf7d3637)"
    },
    "extensionsUsed": [
        "KHR_materials_volume",
        "FB_ngon_encoding"
    ],
    "accessors": [
        {
            "bufferView": 0,
            "byteOffset": 0,
            "componentType": 5126,
            "count": 54018,
            "type": "VEC3",
            "max": [
                0.98546302318573,
                0.5340070128440857,
                0.42389601469039919
            ],
            "min": [
                -0.9990940093994141,
                -0.5367159843444824,
                -0.42596399784088137
            ]
        },
        {
            "bufferView": 1,
            "byteOffset": 0,
            "componentType": 5126,
            "count": 54018,
            "type": "VEC3",
            "max": [
                0.9997580051422119,
                0.9999181032180786,
                0.9999747276306152
            ],
            "min": [
                -0.9999115467071533,
                -0.9999604225158691,
                -0.9999747276306152
            ]
        },
        {
            "bufferView": 2,
            "byteOffset": 0,
            "componentType": 5126,
            "count": 54018,
            "type": "VEC2",
            "max": [
                0.94921875,
                0.99951171875
            ],
            "min": [
                0.0006098747253417969,
                0.0006098747253417969
            ]
        },
        {
            "bufferView": 3,
            "byteOffset": 0,
            "componentType": 5125,
            "count": 54018,
            "type": "SCALAR",
            "max": [
                54017
            ],
            "min": [
                0
            ]
        }
    ],
    "buffers": [
        {
            "byteLength": 1944648,
            "uri": "result.bin"
        }
    ],
    "bufferViews": [
        {
            "buffer": 0,
            "byteOffset": 0,
            "byteLength": 648216,
            "target": 34962
        },
        {
            "buffer": 0,
            "byteOffset": 648216,
            "byteLength": 648216,
            "target": 34962
        },
        {
            "buffer": 0,
            "byteOffset": 1296432,
            "byteLength": 432144,
            "target": 34962
        },
        {
            "buffer": 0,
            "byteOffset": 1728576,
            "byteLength": 216072,
            "target": 34963
        }
    ],
    "images": [
        {
            "uri": "data:image/jpeg;base64,"
        }
    ],
    "materials": [
        {
            "name": "material",
            "pbrMetallicRoughness": {
                "baseColorTexture": {
                    "index": 0
                },
                "metallicFactor": 0.0,
                "roughnessFactor": 0.800000011920929
            },
            "doubleSided": true
        },
        {
            "name": "material"
        }
    ],
    "meshes": [
        {
            "name": "meshes[0]",
            "primitives": [
                {
                    "mode": 4,
                    "material": 0,
                    "indices": 3,
                    "attributes": {
                        "POSITION": 0,
                        "NORMAL": 1,
                        "TEXCOORD_0": 2
                    }
                }
            ]
        }
    ],
    "nodes": [
        {
            "name": "nodes[0]",
            "mesh": 0
        }
    ],
    "samplers": [
        {
            "magFilter": 9729,
            "minFilter": 9987
        }
    ],
    "scenes": [
        {
            "nodes": [
                0
            ]
        }
    ],
    "textures": [
        {
            "source": 0,
            "sampler": 0
        }
    ],
    "scene": 0
}